<svg xmlns="http://www.w3.org/2000/svg" width="1000" height="420" viewBox="0 0 1000 420" font-family="ui-monospace,Menlo,monospace">
<rect width="1000" height="420" fill="#0d1117"/>
<line x1="70" y1="370.0" x2="970" y2="370.0" stroke="#1f2937" stroke-width="1"/>
<text x="62" y="374.0" fill="#8b949e" font-size="12" text-anchor="end">3,835</text>
<line x1="70" y1="287.5" x2="970" y2="287.5" stroke="#1f2937" stroke-width="1"/>
<text x="62" y="291.5" fill="#8b949e" font-size="12" text-anchor="end">3,881</text>
<line x1="70" y1="205.0" x2="970" y2="205.0" stroke="#1f2937" stroke-width="1"/>
<text x="62" y="209.0" fill="#8b949e" font-size="12" text-anchor="end">3,927</text>
<line x1="70" y1="122.5" x2="970" y2="122.5" stroke="#1f2937" stroke-width="1"/>
<text x="62" y="126.5" fill="#8b949e" font-size="12" text-anchor="end">3,974</text>
<line x1="70" y1="40.0" x2="970" y2="40.0" stroke="#1f2937" stroke-width="1"/>
<text x="62" y="44.0" fill="#8b949e" font-size="12" text-anchor="end">4,020</text>
<line x1="70" y1="75.3" x2="970" y2="75.3" stroke="#8b949e" stroke-width="1" stroke-dasharray="4 4"/>
<path d="M70.0,75.3 L75.2,89.3 L80.5,102.5 L85.7,116.0 L90.9,129.6 L96.2,142.9 L101.4,155.2 L106.6,168.5 L111.9,182.2 L117.1,164.6 L122.3,177.0 L127.6,159.0 L132.8,172.4 L138.0,153.7 L143.3,134.8 L148.5,146.8 L153.7,159.4 L159.0,172.7 L164.2,153.9 L169.4,167.6 L174.7,180.8 L179.9,194.5 L185.1,207.3 L190.3,220.6 L195.6,202.3 L200.8,184.4 L206.0,197.7 L211.3,178.7 L216.5,160.9 L221.7,174.1 L227.0,156.2 L232.2,137.8 L237.4,119.4 L242.7,132.4 L247.9,145.5 L253.1,158.4 L258.4,170.9 L263.6,151.9 L268.8,164.2 L274.1,177.7 L279.3,158.0 L284.5,171.4 L289.8,183.9 L295.0,195.7 L300.2,207.5 L305.5,220.7 L310.7,203.0 L315.9,184.7 L321.2,198.2 L326.4,179.1 L331.6,192.7 L336.9,205.4 L342.1,218.0 L347.3,230.5 L352.6,212.5 L357.8,193.9 L363.0,206.7 L368.3,220.3 L373.5,233.7 L378.7,215.9 L384.0,197.6 L389.2,178.6 L394.4,160.3 L399.7,141.6 L404.9,154.6 L410.1,135.1 L415.3,115.2 L420.6,128.5 L425.8,141.5 L431.0,155.3 L436.3,168.9 L441.5,149.9 L446.7,132.2 L452.0,145.8 L457.2,159.4 L462.4,172.3 L467.7,185.7 L472.9,198.3 L478.1,210.5 L483.4,192.5 L488.6,173.7 L493.8,186.0 L499.1,167.8 L504.3,149.7 L509.5,131.0 L514.8,111.8 L520.0,124.8 L525.2,105.7 L530.5,86.9 L535.7,99.8 L540.9,112.2 L546.2,124.8 L551.4,105.7 L556.6,87.3 L561.9,100.1 L567.1,81.3 L572.3,62.8 L577.6,76.1 L582.8,89.0 L588.0,102.9 L593.3,115.3 L598.5,129.5 L603.7,143.6 L609.0,125.4 L614.2,138.5 L619.4,151.6 L624.7,133.9 L629.9,115.1 L635.1,95.7 L640.3,109.0 L645.6,122.1 L650.8,104.5 L656.0,86.4 L661.3,100.4 L666.5,113.5 L671.7,126.5 L677.0,139.4 L682.2,152.8 L687.4,133.9 L692.7,147.4 L697.9,129.5 L703.1,111.1 L708.4,123.5 L713.6,136.7 L718.8,149.9 L724.1,162.8 L729.3,174.6 L734.5,188.1 L739.8,200.8 L745.0,213.4 L750.2,194.8 L755.5,176.4 L760.7,158.1 L765.9,170.7 L771.2,183.4 L776.4,196.3 L781.6,209.5 L786.9,222.4 L792.1,235.4 L797.3,246.9 L802.6,259.6 L807.8,272.2 L813.0,284.3 L818.3,267.5 L823.5,280.3 L828.7,261.5 L834.0,274.9 L839.2,286.4 L844.4,298.9 L849.7,311.2 L854.9,323.3 L860.1,335.5 L865.3,318.8 L870.6,302.0 L875.8,314.3 L881.0,326.3 L886.3,339.9 L891.5,322.1 L896.7,335.8 L902.0,347.2 L907.2,331.1 L912.4,314.2 L917.7,326.4 L922.9,307.5 L928.1,290.3 L933.4,272.4 L938.6,253.6 L943.8,234.1 L949.1,216.3 L954.3,216.8 L959.5,229.4 L964.8,243.1 L970.0,256.9" fill="none" stroke="#58a6ff" stroke-width="2"/>
<circle cx="75.2" cy="89.3" r="2.6" fill="#f85149"/>
<circle cx="80.5" cy="102.5" r="2.6" fill="#f85149"/>
<circle cx="85.7" cy="116.0" r="2.6" fill="#f85149"/>
<circle cx="90.9" cy="129.6" r="2.6" fill="#f85149"/>
<circle cx="96.2" cy="142.9" r="2.6" fill="#f85149"/>
<circle cx="101.4" cy="155.2" r="2.6" fill="#f85149"/>
<circle cx="106.6" cy="168.5" r="2.6" fill="#f85149"/>
<circle cx="111.9" cy="182.2" r="2.6" fill="#f85149"/>
<circle cx="117.1" cy="164.6" r="2.6" fill="#3fb950"/>
<circle cx="122.3" cy="177.0" r="2.6" fill="#f85149"/>
<circle cx="127.6" cy="159.0" r="2.6" fill="#3fb950"/>
<circle cx="132.8" cy="172.4" r="2.6" fill="#f85149"/>
<circle cx="138.0" cy="153.7" r="2.6" fill="#3fb950"/>
<circle cx="143.3" cy="134.8" r="2.6" fill="#3fb950"/>
<circle cx="148.5" cy="146.8" r="2.6" fill="#f85149"/>
<circle cx="153.7" cy="159.4" r="2.6" fill="#f85149"/>
<circle cx="159.0" cy="172.7" r="2.6" fill="#f85149"/>
<circle cx="164.2" cy="153.9" r="2.6" fill="#3fb950"/>
<circle cx="169.4" cy="167.6" r="2.6" fill="#f85149"/>
<circle cx="174.7" cy="180.8" r="2.6" fill="#f85149"/>
<circle cx="179.9" cy="194.5" r="2.6" fill="#f85149"/>
<circle cx="185.1" cy="207.3" r="2.6" fill="#f85149"/>
<circle cx="190.3" cy="220.6" r="2.6" fill="#f85149"/>
<circle cx="195.6" cy="202.3" r="2.6" fill="#3fb950"/>
<circle cx="200.8" cy="184.4" r="2.6" fill="#3fb950"/>
<circle cx="206.0" cy="197.7" r="2.6" fill="#f85149"/>
<circle cx="211.3" cy="178.7" r="2.6" fill="#3fb950"/>
<circle cx="216.5" cy="160.9" r="2.6" fill="#3fb950"/>
<circle cx="221.7" cy="174.1" r="2.6" fill="#f85149"/>
<circle cx="227.0" cy="156.2" r="2.6" fill="#3fb950"/>
<circle cx="232.2" cy="137.8" r="2.6" fill="#3fb950"/>
<circle cx="237.4" cy="119.4" r="2.6" fill="#3fb950"/>
<circle cx="242.7" cy="132.4" r="2.6" fill="#f85149"/>
<circle cx="247.9" cy="145.5" r="2.6" fill="#f85149"/>
<circle cx="253.1" cy="158.4" r="2.6" fill="#f85149"/>
<circle cx="258.4" cy="170.9" r="2.6" fill="#f85149"/>
<circle cx="263.6" cy="151.9" r="2.6" fill="#3fb950"/>
<circle cx="268.8" cy="164.2" r="2.6" fill="#f85149"/>
<circle cx="274.1" cy="177.7" r="2.6" fill="#f85149"/>
<circle cx="279.3" cy="158.0" r="2.6" fill="#3fb950"/>
<circle cx="284.5" cy="171.4" r="2.6" fill="#f85149"/>
<circle cx="289.8" cy="183.9" r="2.6" fill="#f85149"/>
<circle cx="295.0" cy="195.7" r="2.6" fill="#f85149"/>
<circle cx="300.2" cy="207.5" r="2.6" fill="#f85149"/>
<circle cx="305.5" cy="220.7" r="2.6" fill="#f85149"/>
<circle cx="310.7" cy="203.0" r="2.6" fill="#3fb950"/>
<circle cx="315.9" cy="184.7" r="2.6" fill="#3fb950"/>
<circle cx="321.2" cy="198.2" r="2.6" fill="#f85149"/>
<circle cx="326.4" cy="179.1" r="2.6" fill="#3fb950"/>
<circle cx="331.6" cy="192.7" r="2.6" fill="#f85149"/>
<circle cx="336.9" cy="205.4" r="2.6" fill="#f85149"/>
<circle cx="342.1" cy="218.0" r="2.6" fill="#f85149"/>
<circle cx="347.3" cy="230.5" r="2.6" fill="#f85149"/>
<circle cx="352.6" cy="212.5" r="2.6" fill="#3fb950"/>
<circle cx="357.8" cy="193.9" r="2.6" fill="#3fb950"/>
<circle cx="363.0" cy="206.7" r="2.6" fill="#f85149"/>
<circle cx="368.3" cy="220.3" r="2.6" fill="#f85149"/>
<circle cx="373.5" cy="233.7" r="2.6" fill="#f85149"/>
<circle cx="378.7" cy="215.9" r="2.6" fill="#3fb950"/>
<circle cx="384.0" cy="197.6" r="2.6" fill="#3fb950"/>
<circle cx="389.2" cy="178.6" r="2.6" fill="#3fb950"/>
<circle cx="394.4" cy="160.3" r="2.6" fill="#3fb950"/>
<circle cx="399.7" cy="141.6" r="2.6" fill="#3fb950"/>
<circle cx="404.9" cy="154.6" r="2.6" fill="#f85149"/>
<circle cx="410.1" cy="135.1" r="2.6" fill="#3fb950"/>
<circle cx="415.3" cy="115.2" r="2.6" fill="#3fb950"/>
<circle cx="420.6" cy="128.5" r="2.6" fill="#f85149"/>
<circle cx="425.8" cy="141.5" r="2.6" fill="#f85149"/>
<circle cx="431.0" cy="155.3" r="2.6" fill="#f85149"/>
<circle cx="436.3" cy="168.9" r="2.6" fill="#f85149"/>
<circle cx="441.5" cy="149.9" r="2.6" fill="#3fb950"/>
<circle cx="446.7" cy="132.2" r="2.6" fill="#3fb950"/>
<circle cx="452.0" cy="145.8" r="2.6" fill="#f85149"/>
<circle cx="457.2" cy="159.4" r="2.6" fill="#f85149"/>
<circle cx="462.4" cy="172.3" r="2.6" fill="#f85149"/>
<circle cx="467.7" cy="185.7" r="2.6" fill="#f85149"/>
<circle cx="472.9" cy="198.3" r="2.6" fill="#f85149"/>
<circle cx="478.1" cy="210.5" r="2.6" fill="#f85149"/>
<circle cx="483.4" cy="192.5" r="2.6" fill="#3fb950"/>
<circle cx="488.6" cy="173.7" r="2.6" fill="#3fb950"/>
<circle cx="493.8" cy="186.0" r="2.6" fill="#f85149"/>
<circle cx="499.1" cy="167.8" r="2.6" fill="#3fb950"/>
<circle cx="504.3" cy="149.7" r="2.6" fill="#3fb950"/>
<circle cx="509.5" cy="131.0" r="2.6" fill="#3fb950"/>
<circle cx="514.8" cy="111.8" r="2.6" fill="#3fb950"/>
<circle cx="520.0" cy="124.8" r="2.6" fill="#f85149"/>
<circle cx="525.2" cy="105.7" r="2.6" fill="#3fb950"/>
<circle cx="530.5" cy="86.9" r="2.6" fill="#3fb950"/>
<circle cx="535.7" cy="99.8" r="2.6" fill="#f85149"/>
<circle cx="540.9" cy="112.2" r="2.6" fill="#f85149"/>
<circle cx="546.2" cy="124.8" r="2.6" fill="#f85149"/>
<circle cx="551.4" cy="105.7" r="2.6" fill="#3fb950"/>
<circle cx="556.6" cy="87.3" r="2.6" fill="#3fb950"/>
<circle cx="561.9" cy="100.1" r="2.6" fill="#f85149"/>
<circle cx="567.1" cy="81.3" r="2.6" fill="#3fb950"/>
<circle cx="572.3" cy="62.8" r="2.6" fill="#3fb950"/>
<circle cx="577.6" cy="76.1" r="2.6" fill="#f85149"/>
<circle cx="582.8" cy="89.0" r="2.6" fill="#f85149"/>
<circle cx="588.0" cy="102.9" r="2.6" fill="#f85149"/>
<circle cx="593.3" cy="115.3" r="2.6" fill="#f85149"/>
<circle cx="598.5" cy="129.5" r="2.6" fill="#f85149"/>
<circle cx="603.7" cy="143.6" r="2.6" fill="#f85149"/>
<circle cx="609.0" cy="125.4" r="2.6" fill="#3fb950"/>
<circle cx="614.2" cy="138.5" r="2.6" fill="#f85149"/>
<circle cx="619.4" cy="151.6" r="2.6" fill="#f85149"/>
<circle cx="624.7" cy="133.9" r="2.6" fill="#3fb950"/>
<circle cx="629.9" cy="115.1" r="2.6" fill="#3fb950"/>
<circle cx="635.1" cy="95.7" r="2.6" fill="#3fb950"/>
<circle cx="640.3" cy="109.0" r="2.6" fill="#f85149"/>
<circle cx="645.6" cy="122.1" r="2.6" fill="#f85149"/>
<circle cx="650.8" cy="104.5" r="2.6" fill="#3fb950"/>
<circle cx="656.0" cy="86.4" r="2.6" fill="#3fb950"/>
<circle cx="661.3" cy="100.4" r="2.6" fill="#f85149"/>
<circle cx="666.5" cy="113.5" r="2.6" fill="#f85149"/>
<circle cx="671.7" cy="126.5" r="2.6" fill="#f85149"/>
<circle cx="677.0" cy="139.4" r="2.6" fill="#f85149"/>
<circle cx="682.2" cy="152.8" r="2.6" fill="#f85149"/>
<circle cx="687.4" cy="133.9" r="2.6" fill="#3fb950"/>
<circle cx="692.7" cy="147.4" r="2.6" fill="#f85149"/>
<circle cx="697.9" cy="129.5" r="2.6" fill="#3fb950"/>
<circle cx="703.1" cy="111.1" r="2.6" fill="#3fb950"/>
<circle cx="708.4" cy="123.5" r="2.6" fill="#f85149"/>
<circle cx="713.6" cy="136.7" r="2.6" fill="#f85149"/>
<circle cx="718.8" cy="149.9" r="2.6" fill="#f85149"/>
<circle cx="724.1" cy="162.8" r="2.6" fill="#f85149"/>
<circle cx="729.3" cy="174.6" r="2.6" fill="#f85149"/>
<circle cx="734.5" cy="188.1" r="2.6" fill="#f85149"/>
<circle cx="739.8" cy="200.8" r="2.6" fill="#f85149"/>
<circle cx="745.0" cy="213.4" r="2.6" fill="#f85149"/>
<circle cx="750.2" cy="194.8" r="2.6" fill="#3fb950"/>
<circle cx="755.5" cy="176.4" r="2.6" fill="#3fb950"/>
<circle cx="760.7" cy="158.1" r="2.6" fill="#3fb950"/>
<circle cx="765.9" cy="170.7" r="2.6" fill="#f85149"/>
<circle cx="771.2" cy="183.4" r="2.6" fill="#f85149"/>
<circle cx="776.4" cy="196.3" r="2.6" fill="#f85149"/>
<circle cx="781.6" cy="209.5" r="2.6" fill="#f85149"/>
<circle cx="786.9" cy="222.4" r="2.6" fill="#f85149"/>
<circle cx="792.1" cy="235.4" r="2.6" fill="#f85149"/>
<circle cx="797.3" cy="246.9" r="2.6" fill="#f85149"/>
<circle cx="802.6" cy="259.6" r="2.6" fill="#f85149"/>
<circle cx="807.8" cy="272.2" r="2.6" fill="#f85149"/>
<circle cx="813.0" cy="284.3" r="2.6" fill="#f85149"/>
<circle cx="818.3" cy="267.5" r="2.6" fill="#3fb950"/>
<circle cx="823.5" cy="280.3" r="2.6" fill="#f85149"/>
<circle cx="828.7" cy="261.5" r="2.6" fill="#3fb950"/>
<circle cx="834.0" cy="274.9" r="2.6" fill="#f85149"/>
<circle cx="839.2" cy="286.4" r="2.6" fill="#f85149"/>
<circle cx="844.4" cy="298.9" r="2.6" fill="#f85149"/>
<circle cx="849.7" cy="311.2" r="2.6" fill="#f85149"/>
<circle cx="854.9" cy="323.3" r="2.6" fill="#f85149"/>
<circle cx="860.1" cy="335.5" r="2.6" fill="#f85149"/>
<circle cx="865.3" cy="318.8" r="2.6" fill="#3fb950"/>
<circle cx="870.6" cy="302.0" r="2.6" fill="#3fb950"/>
<circle cx="875.8" cy="314.3" r="2.6" fill="#f85149"/>
<circle cx="881.0" cy="326.3" r="2.6" fill="#f85149"/>
<circle cx="886.3" cy="339.9" r="2.6" fill="#f85149"/>
<circle cx="891.5" cy="322.1" r="2.6" fill="#3fb950"/>
<circle cx="896.7" cy="335.8" r="2.6" fill="#f85149"/>
<circle cx="902.0" cy="347.2" r="2.6" fill="#f85149"/>
<circle cx="907.2" cy="331.1" r="2.6" fill="#3fb950"/>
<circle cx="912.4" cy="314.2" r="2.6" fill="#3fb950"/>
<circle cx="917.7" cy="326.4" r="2.6" fill="#f85149"/>
<circle cx="922.9" cy="307.5" r="2.6" fill="#3fb950"/>
<circle cx="928.1" cy="290.3" r="2.6" fill="#3fb950"/>
<circle cx="933.4" cy="272.4" r="2.6" fill="#3fb950"/>
<circle cx="938.6" cy="253.6" r="2.6" fill="#3fb950"/>
<circle cx="943.8" cy="234.1" r="2.6" fill="#3fb950"/>
<circle cx="949.1" cy="216.3" r="2.6" fill="#3fb950"/>
<circle cx="954.3" cy="216.8" r="2.6" fill="#f85149"/>
<circle cx="959.5" cy="229.4" r="2.6" fill="#f85149"/>
<circle cx="964.8" cy="243.1" r="2.6" fill="#f85149"/>
<circle cx="970.0" cy="256.9" r="2.6" fill="#f85149"/>
<text x="70" y="24" fill="#e6edf3" font-size="15">NightShift paper equity — momentum 15m</text>
<text x="70" y="406" fill="#8b949e" font-size="12">172 trades · win 37.8% · Sharpe -3.19 · max DD 3.50% · fees 238.95 USDT</text>
<text x="970" y="406" fill="#8b949e" font-size="12" text-anchor="end">2026-09-07 → 2026-10-07 (29.74 days)</text>
</svg>